<svg xmlns="http://www.w3.org/2000/svg" viewBox="0 0 169.46 131.21"><defs><style>.cls-1{fill:#fff;}</style></defs><title>Asset 1</title><g id="Layer_2" data-name="Layer 2"><g id="Layer_1-2" data-name="Layer 1"><path class="cls-1" d="M12.71,0A11,11,0,0,0,8,1.1L79.9,75.94c3.11,3.23,6.42,3.23,9.53,0l72-74.84a11,11,0,0,0-4.7-1.1ZM.13,13A18.6,18.6,0,0,0,0,15.14V116.07c0,8.39,5.67,15.14,12.71,15.14h144c7.05,0,12.71-6.75,12.71-15.14V15.14a18.6,18.6,0,0,0-.13-2.13L97.77,87.37c-7.46,7.76-18.75,7.77-26.21,0Z"/></g></g></svg>