<svg xmlns="http://www.w3.org/2000/svg" viewBox="0 0 143.57 143.58"><defs><style>.cls-1{fill:#fff;}</style></defs><title>Asset 2</title><g id="Layer_2" data-name="Layer 2"><g id="Layer_1-2" data-name="Layer 1"><path class="cls-1" d="M143.36,103a4.94,4.94,0,0,0-2.44-2.87L107.71,83.57a4.8,4.8,0,0,0-6.27,1.77L90.87,103l-3.35-.91a65.91,65.91,0,0,1-46-46l-.9-3.35L58.23,42.13A4.8,4.8,0,0,0,60,35.86L43.45,2.65A5.19,5.19,0,0,0,40.58.21a4.65,4.65,0,0,0-3.74.43L8.51,16.34A16.55,16.55,0,0,0,1.19,37L10,59a134.42,134.42,0,0,0,74.6,74.61l22.06,8.8a15.94,15.94,0,0,0,6.13,1.2,16.55,16.55,0,0,0,14.45-8.52l15.69-28.28A4.74,4.74,0,0,0,143.36,103Z"/></g></g></svg>