<svg width="289" height="53" viewBox="0 0 289 53" fill="none" xmlns="http://www.w3.org/2000/svg">
<path d="M23.425 9.375C24.2083 9.375 24.85 9.35 25.35 9.3V9.8C24.9333 9.96667 24.525 10.2917 24.125 10.775C23.7417 11.2417 23.4167 11.9083 23.15 12.775L18.75 27.05C18.5667 27.0333 18.275 27.025 17.875 27.025C17.475 27.025 17.1833 27.0333 17 27.05L13.325 15.9L9.625 27.05C9.44167 27.0333 9.15 27.025 8.75 27.025C8.35 27.025 8.05833 27.0333 7.875 27.05L2.275 11.4C2.075 10.85 1.83333 10.45 1.55 10.2C1.26667 9.95 0.983333 9.81667 0.7 9.8V9.3C1.7 9.35 2.94167 9.375 4.425 9.375C5.825 9.375 6.85 9.35 7.5 9.3V9.8C6.91667 9.88333 6.625 10.2083 6.625 10.775C6.625 11.0417 6.7 11.4167 6.85 11.9L10.5 22.475L13.025 15.025L11.75 11.15C11.5833 10.6667 11.3833 10.3333 11.15 10.15C10.9333 9.95 10.675 9.83333 10.375 9.8V9.3C11.3083 9.35 12.5 9.375 13.95 9.375C15.5833 9.375 16.7833 9.35 17.55 9.3V9.8C16.95 9.81667 16.5167 9.89167 16.25 10.025C15.9833 10.1417 15.85 10.375 15.85 10.725C15.85 11.025 15.9333 11.4167 16.1 11.9L19.525 22.35L21.9 14.8C22.2833 13.55 22.475 12.5833 22.475 11.9C22.475 11.1833 22.2917 10.6667 21.925 10.35C21.575 10.0167 21.0417 9.83333 20.325 9.8V9.3C21.4583 9.35 22.4917 9.375 23.425 9.375ZM31.7365 13.725C33.6532 13.725 35.1532 14.275 36.2365 15.375C37.3199 16.4583 37.8615 18.1833 37.8615 20.55C37.8615 22.9167 37.3199 24.6417 36.2365 25.725C35.1532 26.8083 33.6532 27.35 31.7365 27.35C29.8365 27.35 28.3365 26.8083 27.2365 25.725C26.1532 24.6417 25.6115 22.9167 25.6115 20.55C25.6115 18.1833 26.1532 16.4583 27.2365 15.375C28.3365 14.275 29.8365 13.725 31.7365 13.725ZM31.7365 14.225C31.0199 14.225 30.4449 14.75 30.0115 15.8C29.5949 16.8333 29.3865 18.4167 29.3865 20.55C29.3865 22.6833 29.5949 24.2667 30.0115 25.3C30.4449 26.3333 31.0199 26.85 31.7365 26.85C32.4699 26.85 33.0449 26.3417 33.4615 25.325C33.8782 24.2917 34.0865 22.7 34.0865 20.55C34.0865 18.4 33.8699 16.8083 33.4365 15.775C33.0199 14.7417 32.4532 14.225 31.7365 14.225ZM49.9723 13.725C51.2389 13.725 52.1556 14.05 52.7223 14.7C53.0056 15.0167 53.2056 15.425 53.3223 15.925C53.4389 16.425 53.4973 17.1 53.4973 17.95V24.675C53.4973 25.3583 53.6139 25.8333 53.8473 26.1C54.0973 26.35 54.5139 26.475 55.0973 26.475V27C53.4306 26.9333 52.3306 26.9 51.7973 26.9C51.2973 26.9 50.2139 26.9333 48.5473 27V26.475C49.0473 26.475 49.3973 26.35 49.5973 26.1C49.7973 25.8333 49.8973 25.3583 49.8973 24.675V16.9C49.8973 16.2167 49.7806 15.7 49.5473 15.35C49.3306 15 48.9306 14.825 48.3473 14.825C47.6639 14.825 47.0806 15.1083 46.5973 15.675C46.1139 16.225 45.8723 16.9083 45.8723 17.725V24.675C45.8723 25.3583 45.9723 25.8333 46.1723 26.1C46.3723 26.35 46.7223 26.475 47.2223 26.475V27C45.6889 26.9333 44.6556 26.9 44.1223 26.9C43.6223 26.9 42.4723 26.9333 40.6723 27V26.475C41.2723 26.475 41.6889 26.35 41.9223 26.1C42.1556 25.8333 42.2723 25.3583 42.2723 24.675V16.8C42.2723 16.0333 42.1556 15.475 41.9223 15.125C41.6889 14.775 41.2723 14.6 40.6723 14.6V14.075C41.2056 14.125 41.7223 14.15 42.2223 14.15C43.7056 14.15 44.9223 14.0333 45.8723 13.8V16.05C46.6223 14.5 47.9889 13.725 49.9723 13.725ZM69.5787 24.25C69.5787 25.0167 69.6954 25.575 69.9287 25.925C70.162 26.275 70.5787 26.45 71.1787 26.45V26.975C70.662 26.925 70.1454 26.9 69.6287 26.9C68.1454 26.9 66.9287 27.0167 65.9787 27.25V25.1C65.412 26.6 64.3287 27.35 62.7287 27.35C61.162 27.35 59.912 26.7833 58.9787 25.65C58.062 24.5 57.612 22.775 57.6287 20.475C57.6287 19.0083 57.862 17.775 58.3287 16.775C58.812 15.7583 59.4704 15 60.3037 14.5C61.1537 13.9833 62.1204 13.725 63.2037 13.725C64.4204 13.725 65.3454 14.0417 65.9787 14.675V10.425C65.9787 9.65833 65.8537 9.1 65.6037 8.75C65.3704 8.4 64.962 8.225 64.3787 8.225V7.7C64.912 7.75 65.4287 7.775 65.9287 7.775C67.3787 7.775 68.5954 7.65833 69.5787 7.425V24.25ZM63.7537 26.275C64.3037 26.275 64.787 26.075 65.2037 25.675C65.637 25.275 65.8954 24.7333 65.9787 24.05V15.3C65.562 14.7333 64.9537 14.45 64.1537 14.45C63.2704 14.45 62.587 14.9583 62.1037 15.975C61.6204 16.9917 61.387 18.5083 61.4037 20.525C61.387 22.5583 61.5787 24.025 61.9787 24.925C62.3954 25.825 62.987 26.275 63.7537 26.275ZM80.8201 25.3C82.1868 25.3 83.2868 24.6333 84.1201 23.3L84.5701 23.45C84.2368 24.5333 83.6368 25.4583 82.7701 26.225C81.9201 26.975 80.8535 27.35 79.5701 27.35C77.8035 27.35 76.3951 26.7917 75.3451 25.675C74.3118 24.5417 73.7951 22.875 73.7951 20.675C73.7951 18.425 74.3535 16.7083 75.4701 15.525C76.5868 14.325 78.0701 13.725 79.9201 13.725C83.0535 13.725 84.6201 15.575 84.6201 19.275H77.5951C77.5785 19.525 77.5701 19.9167 77.5701 20.45C77.5701 21.55 77.7201 22.4667 78.0201 23.2C78.3368 23.9333 78.7368 24.4667 79.2201 24.8C79.7201 25.1333 80.2535 25.3 80.8201 25.3ZM79.7701 14.25C79.1701 14.25 78.6701 14.625 78.2701 15.375C77.8868 16.1083 77.6451 17.25 77.5451 18.8H81.4701C81.5035 17.4833 81.3701 16.4 81.0701 15.55C80.7868 14.6833 80.3535 14.25 79.7701 14.25ZM95.7713 13.725C96.5213 13.725 97.088 13.95 97.4713 14.4C97.8546 14.85 98.0463 15.3917 98.0463 16.025C98.0463 16.6417 97.863 17.15 97.4963 17.55C97.1463 17.9333 96.6796 18.125 96.0963 18.125C95.5296 18.125 95.0796 17.9833 94.7463 17.7C94.413 17.4 94.2463 17.0083 94.2463 16.525C94.2463 15.725 94.613 15.075 95.3463 14.575C95.2796 14.5583 95.1796 14.55 95.0463 14.55C94.8796 14.55 94.7463 14.5667 94.6463 14.6C94.013 14.7 93.4713 15.0833 93.0213 15.75C92.588 16.4167 92.3713 17.1 92.3713 17.8V24.425C92.3713 25.1917 92.5546 25.725 92.9213 26.025C93.3046 26.325 93.9046 26.475 94.7213 26.475V27C94.488 27 94.2963 26.9917 94.1463 26.975C92.4463 26.925 91.313 26.9 90.7463 26.9C90.2963 26.9 89.2713 26.925 87.6713 26.975C87.538 26.9917 87.3713 27 87.1713 27V26.475C87.7713 26.475 88.188 26.35 88.4213 26.1C88.6546 25.8333 88.7713 25.3583 88.7713 24.675V16.8C88.7713 16.0333 88.6546 15.475 88.4213 15.125C88.188 14.775 87.7713 14.6 87.1713 14.6V14.075C87.7046 14.125 88.2213 14.15 88.7213 14.15C90.2046 14.15 91.4213 14.0333 92.3713 13.8V16.125C92.688 15.4083 93.1463 14.8333 93.7463 14.4C94.3463 13.95 95.0213 13.725 95.7713 13.725ZM113.569 24.675C113.569 25.3583 113.694 25.8333 113.944 26.1C114.211 26.35 114.669 26.475 115.319 26.475V27C113.519 26.9333 112.361 26.9 111.844 26.9C111.327 26.9 110.169 26.9333 108.369 27V26.475C108.969 26.475 109.386 26.35 109.619 26.1C109.852 25.8333 109.969 25.3583 109.969 24.675V10.1C109.969 9.33333 109.811 8.79167 109.494 8.475C109.327 8.29167 109.102 8.15 108.819 8.05C108.552 7.95 108.269 7.9 107.969 7.9C107.519 7.9 107.136 7.975 106.819 8.125C106.519 8.25833 106.252 8.46667 106.019 8.75C105.686 9.11667 105.469 9.58333 105.369 10.15C105.286 10.7167 105.244 11.575 105.244 12.725V14.1H107.869V14.6H105.244V24.675C105.244 25.3583 105.411 25.8333 105.744 26.1C106.077 26.35 106.577 26.475 107.244 26.475V27L106.594 26.975C104.944 26.925 103.919 26.9 103.519 26.9C102.986 26.9 101.944 26.925 100.394 26.975C100.277 26.9917 100.111 27 99.8941 27V26.475C100.544 26.475 100.994 26.35 101.244 26.1C101.511 25.8333 101.644 25.3583 101.644 24.675V14.6H99.7941V14.1H101.644C101.644 12.8333 101.786 11.775 102.069 10.925C102.352 10.0583 102.811 9.35 103.444 8.8C103.994 8.33333 104.627 7.99167 105.344 7.775C106.061 7.55833 106.802 7.45 107.569 7.45C107.902 7.45 108.419 7.48333 109.119 7.55C109.919 7.61667 110.552 7.65 111.019 7.65C111.802 7.65 112.652 7.56667 113.569 7.4V24.675ZM123.782 13.725C125.699 13.725 127.199 14.275 128.282 15.375C129.366 16.4583 129.907 18.1833 129.907 20.55C129.907 22.9167 129.366 24.6417 128.282 25.725C127.199 26.8083 125.699 27.35 123.782 27.35C121.882 27.35 120.382 26.8083 119.282 25.725C118.199 24.6417 117.657 22.9167 117.657 20.55C117.657 18.1833 118.199 16.4583 119.282 15.375C120.382 14.275 121.882 13.725 123.782 13.725ZM123.782 14.225C123.066 14.225 122.491 14.75 122.057 15.8C121.641 16.8333 121.432 18.4167 121.432 20.55C121.432 22.6833 121.641 24.2667 122.057 25.3C122.491 26.3333 123.066 26.85 123.782 26.85C124.516 26.85 125.091 26.3417 125.507 25.325C125.924 24.2917 126.132 22.7 126.132 20.55C126.132 18.4 125.916 16.8083 125.482 15.775C125.066 14.7417 124.499 14.225 123.782 14.225ZM139.168 13.725C141.085 13.725 142.585 14.275 143.668 15.375C144.751 16.4583 145.293 18.1833 145.293 20.55C145.293 22.9167 144.751 24.6417 143.668 25.725C142.585 26.8083 141.085 27.35 139.168 27.35C137.268 27.35 135.768 26.8083 134.668 25.725C133.585 24.6417 133.043 22.9167 133.043 20.55C133.043 18.1833 133.585 16.4583 134.668 15.375C135.768 14.275 137.268 13.725 139.168 13.725ZM139.168 14.225C138.451 14.225 137.876 14.75 137.443 15.8C137.026 16.8333 136.818 18.4167 136.818 20.55C136.818 22.6833 137.026 24.2667 137.443 25.3C137.876 26.3333 138.451 26.85 139.168 26.85C139.901 26.85 140.476 26.3417 140.893 25.325C141.31 24.2917 141.518 22.7 141.518 20.55C141.518 18.4 141.301 16.8083 140.868 15.775C140.451 14.7417 139.885 14.225 139.168 14.225ZM156.704 13.725C157.454 13.725 158.021 13.95 158.404 14.4C158.787 14.85 158.979 15.3917 158.979 16.025C158.979 16.6417 158.796 17.15 158.429 17.55C158.079 17.9333 157.612 18.125 157.029 18.125C156.462 18.125 156.012 17.9833 155.679 17.7C155.346 17.4 155.179 17.0083 155.179 16.525C155.179 15.725 155.546 15.075 156.279 14.575C156.212 14.5583 156.112 14.55 155.979 14.55C155.812 14.55 155.679 14.5667 155.579 14.6C154.946 14.7 154.404 15.0833 153.954 15.75C153.521 16.4167 153.304 17.1 153.304 17.8V24.425C153.304 25.1917 153.487 25.725 153.854 26.025C154.237 26.325 154.837 26.475 155.654 26.475V27C155.421 27 155.229 26.9917 155.079 26.975C153.379 26.925 152.246 26.9 151.679 26.9C151.229 26.9 150.204 26.925 148.604 26.975C148.471 26.9917 148.304 27 148.104 27V26.475C148.704 26.475 149.121 26.35 149.354 26.1C149.587 25.8333 149.704 25.3583 149.704 24.675V16.8C149.704 16.0333 149.587 15.475 149.354 15.125C149.121 14.775 148.704 14.6 148.104 14.6V14.075C148.637 14.125 149.154 14.15 149.654 14.15C151.137 14.15 152.354 14.0333 153.304 13.8V16.125C153.621 15.4083 154.079 14.8333 154.679 14.4C155.279 13.95 155.954 13.725 156.704 13.725Z" fill="white"/>
<path d="M193.048 10.468C191.2 9.456 187.636 8.268 184.952 7.63L184.16 8.972C186.888 9.654 190.43 10.974 192.212 11.986L193.048 10.468ZM185.524 16.276L185.238 16.342H179.298V17.904H184.534C183.434 21.116 181.278 23.646 178.858 25.076C179.232 25.34 179.892 25.956 180.134 26.308C182.95 24.504 185.48 21.248 186.602 16.76L185.524 16.276ZM196.898 13.68C195.622 15.11 193.554 16.98 191.816 18.3C191.024 16.892 190.408 15.352 189.924 13.724V12.096H182.158V13.68H188.208V25.56C188.208 25.912 188.076 26.022 187.68 26.044C187.328 26.066 186.03 26.066 184.688 26C184.952 26.462 185.216 27.188 185.282 27.628C187.108 27.628 188.274 27.606 188.978 27.342C189.682 27.078 189.924 26.572 189.924 25.582V17.794C191.662 21.688 194.302 24.658 197.998 26.264C198.24 25.802 198.768 25.164 199.12 24.834C196.392 23.8 194.214 21.93 192.586 19.51C194.412 18.234 196.656 16.342 198.372 14.736L196.898 13.68ZM215.84 21.072V22.788H210.582V21.072H215.84ZM222.99 22.788H217.424V21.072H222.99V22.788ZM217.424 25.692V23.932H222.99V25.692H217.424ZM210.582 23.932H215.84V25.692H210.582V23.932ZM209.042 27.716H210.582V26.968H222.99V27.628H224.596V19.818H209.042V27.716ZM223.012 12.14H210.45V13.328H223.012V12.14ZM212.012 15.704H221.296V17.376H212.012V15.704ZM222.88 18.542V14.538H210.516V18.542H222.88ZM217.93 9.368C217.644 8.796 217.204 8.004 216.808 7.388L215.114 7.784C215.4 8.268 215.686 8.84 215.95 9.368H207.59V13.526H209.152V10.798H224.31V13.526H225.916V9.368H217.93ZM250.314 11.876C249.808 11.37 248.796 10.776 247.938 10.38L247.168 11.194C248.026 11.568 249.038 12.25 249.522 12.734L250.314 11.876ZM244.44 20.764C241.976 21.204 239.534 21.644 237.862 21.908L238.082 23.14C239.886 22.81 242.218 22.348 244.506 21.908L244.44 20.764ZM242.526 18.828H239.996V16.628H242.526V18.828ZM238.852 15.594V19.862H243.714V15.594H238.852ZM248.62 15.22C248.246 16.716 247.696 18.08 246.992 19.268C246.618 17.86 246.354 16.1 246.178 14.208H250.864V12.976H246.068C246.024 12.206 245.98 11.436 245.936 10.644H244.528C244.572 11.436 244.638 12.206 244.704 12.976H238.082V14.208H244.814C245.078 16.694 245.43 18.96 246.024 20.698C245.1 21.864 244 22.832 242.702 23.58C242.988 23.822 243.472 24.35 243.67 24.614C244.748 23.91 245.716 23.074 246.574 22.084C247.168 23.25 247.894 24.02 248.862 24.218C250.006 24.658 250.754 23.778 251.04 21.38C250.732 21.248 250.248 20.918 249.984 20.654C249.83 22.062 249.61 23.008 249.302 22.92C248.576 22.81 247.982 22.062 247.52 20.896C248.576 19.378 249.412 17.574 249.962 15.506L248.62 15.22ZM236.872 25.252V10.094H251.964V25.252H236.872ZM235.31 8.598V27.738H236.872V26.726H251.964V27.738H253.57V8.598H235.31ZM268.002 8.4L267.76 8.488H262.942V27.628H264.372V9.962H267.188C266.748 11.436 266.132 13.35 265.516 14.912C267.012 16.65 267.386 18.168 267.386 19.356C267.386 20.038 267.276 20.632 266.946 20.874C266.792 21.006 266.55 21.072 266.308 21.072C265.956 21.094 265.538 21.094 265.054 21.05C265.296 21.468 265.428 22.084 265.45 22.502C265.912 22.524 266.462 22.524 266.88 22.48C267.32 22.414 267.716 22.282 268.002 22.062C268.596 21.622 268.838 20.676 268.838 19.488C268.838 18.146 268.464 16.562 266.924 14.736C267.65 12.998 268.42 10.82 269.058 9.038L268.002 8.4ZM271.06 22.216C270.444 23.448 269.498 24.878 268.618 25.89C268.992 26.066 269.586 26.462 269.85 26.704C270.686 25.648 271.72 24.02 272.468 22.656L271.06 22.216ZM281.202 21.116V19.752H269.938V21.116H274.756V25.934C274.756 26.154 274.69 26.242 274.404 26.242C274.14 26.264 273.348 26.264 272.292 26.242C272.512 26.66 272.754 27.232 272.798 27.672C274.096 27.672 274.976 27.672 275.548 27.408C276.142 27.166 276.274 26.77 276.274 25.956V21.116H281.202ZM278.21 22.766C279.134 23.998 280.3 25.692 280.872 26.682L282.148 25.868C281.554 24.922 280.366 23.316 279.442 22.128L278.21 22.766ZM272.38 16.364C273.81 14.67 274.976 12.426 275.614 9.72C276.274 12.36 277.242 14.626 278.628 16.364H272.38ZM280.366 10.666C279.904 11.744 279.266 12.932 278.562 13.812C278.034 12.866 277.572 11.81 277.198 10.666H280.366ZM281.29 9.39L281.004 9.478H276.868C276.758 8.994 276.648 8.532 276.56 8.048L275.328 8.29C275.416 8.73 275.504 9.126 275.592 9.544L274.844 9.236L274.602 9.28H272.292C272.49 8.818 272.666 8.378 272.82 7.894L271.544 7.608C270.84 9.83 269.608 11.898 268.068 13.24C268.376 13.438 268.926 13.878 269.146 14.076C270.114 13.108 271.016 11.854 271.764 10.402H274.14C273.942 11.062 273.744 11.7 273.458 12.294C272.952 11.964 272.38 11.634 271.852 11.37L271.28 12.14C271.808 12.448 272.468 12.888 272.974 13.262C272.71 13.79 272.402 14.252 272.05 14.736C271.566 14.296 270.906 13.856 270.378 13.504L269.674 14.186C270.246 14.582 270.906 15.088 271.412 15.55C270.62 16.452 269.74 17.2 268.838 17.728C269.146 17.97 269.498 18.41 269.696 18.74C270.532 18.212 271.346 17.508 272.094 16.694V17.706H279.068V16.892C279.75 17.64 280.564 18.3 281.466 18.806C281.686 18.41 282.082 17.882 282.39 17.596C281.158 17.002 280.146 16.078 279.31 14.912C280.432 13.658 281.532 11.744 282.192 9.94L281.29 9.39Z" fill="white"/>
<path d="M180.977 40.954H182.641V40.356H180.977V37.301H180.379V40.356H178.611V40.954H180.379V45.387C179.677 45.686 179.04 45.933 178.533 46.128L178.78 46.739C179.898 46.271 181.354 45.634 182.745 45.01L182.628 44.451C182.069 44.672 181.51 44.919 180.977 45.14V40.954ZM185.319 48.065C184.435 48.065 184.24 47.87 184.24 47.194V42.384L186.385 41.474V46.128H186.983V41.227L189.232 40.278C189.232 42.449 189.193 44.23 189.102 44.607C189.024 44.945 188.868 45.01 188.66 45.01C188.491 45.01 187.997 45.01 187.633 44.984C187.724 45.14 187.776 45.374 187.815 45.556C188.127 45.556 188.621 45.556 188.946 45.504C189.323 45.465 189.583 45.283 189.674 44.789C189.791 44.308 189.83 42.124 189.83 39.719L189.856 39.576L189.427 39.394L189.297 39.511L189.102 39.693L186.983 40.59V37.171H186.385V40.824L184.24 41.734V38.354H183.642V41.968L182.16 42.605L182.42 43.151L183.642 42.644V47.168C183.642 48.351 184.032 48.637 185.345 48.637H188.816C190.077 48.637 190.298 48.091 190.415 46.336C190.233 46.297 189.999 46.193 189.843 46.076C189.739 47.675 189.609 48.065 188.816 48.065H185.319ZM196.161 43.138C195.94 42.761 194.991 41.318 194.653 40.837V40.317H196.291V39.719H194.653V37.171H194.055V39.719H192.118V40.317H193.977C193.535 42.241 192.638 44.451 191.806 45.556C191.923 45.686 192.092 45.946 192.17 46.115C192.859 45.153 193.574 43.424 194.055 41.76V48.936H194.653V41.643C195.043 42.306 195.563 43.229 195.758 43.645L196.161 43.138ZM202.219 41.734C201.842 43.32 201.205 44.633 200.399 45.699C199.632 44.568 199.06 43.203 198.657 41.734H202.219ZM202.544 41.123L202.427 41.162H197.487V39.043C199.463 38.874 201.829 38.575 203.129 38.016L202.726 37.522C201.465 38.068 198.891 38.38 196.876 38.523V41.734C196.876 43.775 196.733 46.57 195.303 48.611C195.459 48.676 195.706 48.845 195.823 48.975C197.266 46.869 197.487 43.853 197.487 41.747V41.734H198.111C198.527 43.411 199.151 44.932 200.009 46.18C199.099 47.207 198.02 47.961 196.889 48.429C197.032 48.559 197.188 48.793 197.279 48.962C198.423 48.442 199.489 47.714 200.386 46.687C201.166 47.688 202.128 48.455 203.259 48.962C203.363 48.78 203.545 48.546 203.701 48.416C202.557 47.974 201.595 47.207 200.789 46.219C201.777 44.958 202.544 43.32 202.934 41.266L202.544 41.123ZM211.332 47.272V39.342H216.194V38.705H205.924V39.342H210.669V47.272H205.274V47.896H216.792V47.272H211.332ZM228.713 40.759H224.046V38.237H228.713V40.759ZM229.311 37.678H223.461V41.318H229.311V37.678ZM222.642 44.165C222.434 43.788 221.446 42.306 221.108 41.851V41.513H222.876V40.915H221.108V38.367C221.68 38.198 222.226 38.016 222.655 37.821L222.2 37.314C221.42 37.704 220.003 38.081 218.82 38.315C218.898 38.471 218.976 38.679 219.015 38.822C219.496 38.731 220.003 38.627 220.51 38.51V40.915H218.586V41.513H220.419C219.977 43.125 219.093 44.984 218.313 45.985C218.443 46.115 218.625 46.388 218.716 46.557C219.353 45.712 220.016 44.282 220.51 42.878V48.962H221.108V42.709C221.498 43.359 222.005 44.269 222.2 44.698L222.642 44.165ZM226.763 48V45.816H229.532V45.244H226.763V43.216H229.805V42.631H223.149V43.216H226.139V45.244H223.448V45.816H226.139V48H222.538V48.598H230.091V48H226.763ZM240.998 43.528H235.122V41.89H240.998V43.528ZM235.122 45.751V44.087H240.998V45.751H235.122ZM243.195 39.524V38.926H236.37C236.591 38.406 236.773 37.873 236.942 37.327L236.331 37.184C236.162 37.769 235.967 38.354 235.72 38.926H231.95V39.524H235.46C234.602 41.357 233.341 43.047 231.69 44.191C231.807 44.308 232.002 44.529 232.08 44.672C233.003 44.009 233.822 43.19 234.511 42.254V48.949H235.122V46.323H240.998V48C240.998 48.221 240.933 48.299 240.699 48.299C240.452 48.312 239.646 48.325 238.684 48.286C238.762 48.481 238.866 48.728 238.905 48.91C240.049 48.91 240.764 48.91 241.141 48.793C241.505 48.689 241.609 48.481 241.609 48.013V41.318H235.161C235.512 40.746 235.837 40.135 236.11 39.524H243.195ZM248.863 37.691L248.759 37.717H245.626V48.949H246.198V38.302H248.486C248.174 39.199 247.719 40.343 247.264 41.37C248.304 42.488 248.59 43.411 248.59 44.178C248.59 44.581 248.512 44.997 248.278 45.153C248.174 45.231 248.018 45.27 247.849 45.283C247.615 45.296 247.316 45.283 246.978 45.27C247.095 45.439 247.16 45.673 247.173 45.842C247.446 45.855 247.784 45.855 248.057 45.829C248.304 45.803 248.538 45.725 248.694 45.608C249.032 45.374 249.162 44.828 249.162 44.217C249.162 43.385 248.902 42.41 247.875 41.292C248.343 40.252 248.863 38.991 249.266 37.951L248.863 37.691ZM250.683 40.798H255.077V42.748H250.683V40.798ZM255.077 38.354V40.239H250.683V38.354H255.077ZM256.026 43.918C255.428 44.425 254.466 45.101 253.686 45.556C253.309 44.893 252.997 44.139 252.789 43.32H255.675V37.782H250.072V47.584C250.072 48.091 249.838 48.299 249.669 48.377C249.786 48.533 249.916 48.793 249.968 48.936C250.189 48.78 250.54 48.676 253.296 47.896C253.27 47.766 253.257 47.493 253.257 47.324L250.683 47.987V43.32H252.217C252.88 45.92 254.206 47.909 256.312 48.832C256.403 48.663 256.611 48.429 256.741 48.286C255.584 47.857 254.674 47.051 253.972 46.024C254.765 45.556 255.766 44.945 256.468 44.334L256.026 43.918ZM261.98 37.613C261.187 39.602 259.848 41.487 258.34 42.683C258.509 42.787 258.782 42.995 258.912 43.112C260.381 41.838 261.746 39.901 262.63 37.795L261.98 37.613ZM265.633 44.399C266.244 45.114 266.907 45.972 267.505 46.791L260.693 47.168C262.032 45.608 263.332 43.528 264.476 41.474L263.826 41.188C262.747 43.333 261.161 45.608 260.641 46.193C260.186 46.804 259.796 47.246 259.51 47.311C259.601 47.493 259.718 47.831 259.757 47.974C260.147 47.844 260.758 47.805 267.908 47.376C268.272 47.896 268.584 48.403 268.818 48.806L269.403 48.481C268.753 47.311 267.375 45.491 266.192 44.126L265.633 44.399ZM265.399 37.756C266.4 39.719 268.116 41.955 269.494 43.125C269.624 42.969 269.845 42.735 270.014 42.605C268.636 41.552 266.92 39.394 265.997 37.509L265.399 37.756ZM278.36 43.086V45.946H273.654V43.086H278.36ZM278.984 42.514H273.043V47.48H273.654V46.518H278.984V42.514ZM279.998 40.265H272.12V40.85H279.998V40.265ZM282.221 38.055H272.068V38.653H281.597V47.818C281.597 48.052 281.532 48.13 281.272 48.143C281.012 48.156 280.089 48.169 279.101 48.143C279.205 48.338 279.309 48.637 279.335 48.819C280.492 48.819 281.285 48.832 281.701 48.715C282.091 48.598 282.221 48.351 282.221 47.805V38.055Z" fill="#CBCBCB"/>
<path d="M11.455 37.68C11.095 37.7 10.83 37.74 10.66 37.8C10.5 37.86 10.39 37.975 10.33 38.145C10.27 38.315 10.24 38.59 10.24 38.97V46.41C10.24 46.79 10.27 47.065 10.33 47.235C10.39 47.405 10.5 47.52 10.66 47.58C10.83 47.64 11.095 47.68 11.455 47.7V48C10.995 47.97 10.36 47.955 9.55 47.955C8.69 47.955 8.05 47.97 7.63 48V47.7C7.99 47.68 8.25 47.64 8.41 47.58C8.58 47.52 8.695 47.405 8.755 47.235C8.815 47.065 8.845 46.79 8.845 46.41V38.97C8.845 38.59 8.815 38.315 8.755 38.145C8.695 37.975 8.58 37.86 8.41 37.8C8.25 37.74 7.99 37.7 7.63 37.68V37.38C8.05 37.41 8.69 37.425 9.55 37.425C10.35 37.425 10.985 37.41 11.455 37.38V37.68ZM17.708 40.065C18.408 40.065 18.938 40.255 19.298 40.635C19.488 40.835 19.623 41.085 19.703 41.385C19.783 41.685 19.823 42.09 19.823 42.6V46.605C19.823 47.015 19.908 47.3 20.078 47.46C20.248 47.61 20.543 47.685 20.963 47.685V48C20.043 47.96 19.443 47.94 19.163 47.94C18.883 47.94 18.323 47.96 17.483 48V47.685C17.853 47.685 18.108 47.61 18.248 47.46C18.398 47.3 18.473 47.015 18.473 46.605V42.27C18.473 41.71 18.393 41.285 18.233 40.995C18.073 40.695 17.748 40.545 17.258 40.545C16.848 40.545 16.483 40.665 16.163 40.905C15.843 41.145 15.593 41.475 15.413 41.895C15.243 42.305 15.158 42.765 15.158 43.275V46.605C15.158 47.015 15.228 47.3 15.368 47.46C15.518 47.61 15.778 47.685 16.148 47.685V48C15.308 47.96 14.748 47.94 14.468 47.94C14.188 47.94 13.588 47.96 12.668 48V47.685C13.088 47.685 13.383 47.61 13.553 47.46C13.723 47.3 13.808 47.015 13.808 46.605V41.91C13.808 41.45 13.723 41.115 13.553 40.905C13.383 40.695 13.088 40.59 12.668 40.59V40.275C12.988 40.305 13.298 40.32 13.598 40.32C14.228 40.32 14.748 40.25 15.158 40.11V41.88C15.408 41.24 15.753 40.78 16.193 40.5C16.643 40.21 17.148 40.065 17.708 40.065ZM24.1832 40.29H26.4032V40.59H24.1832V46.395C24.1832 46.845 24.2632 47.17 24.4232 47.37C24.5932 47.57 24.8332 47.67 25.1432 47.67C25.4532 47.67 25.7182 47.545 25.9382 47.295C26.1582 47.045 26.3432 46.635 26.4932 46.065L26.7932 46.14C26.5432 47.52 25.8932 48.21 24.8432 48.21C24.5032 48.21 24.2232 48.17 24.0032 48.09C23.7832 48.01 23.5882 47.885 23.4182 47.715C23.1982 47.495 23.0432 47.225 22.9532 46.905C22.8732 46.585 22.8332 46.155 22.8332 45.615V40.59H21.3932V40.29H22.8332V37.995C23.3932 37.975 23.8432 37.905 24.1832 37.785V40.29ZM33.7309 46.2C33.5509 46.75 33.2109 47.225 32.7109 47.625C32.2209 48.015 31.6259 48.21 30.9259 48.21C30.2159 48.21 29.6009 48.05 29.0809 47.73C28.5609 47.4 28.1609 46.945 27.8809 46.365C27.6109 45.775 27.4759 45.095 27.4759 44.325C27.4759 43.455 27.6159 42.7 27.8959 42.06C28.1759 41.42 28.5709 40.93 29.0809 40.59C29.5909 40.24 30.1859 40.065 30.8659 40.065C31.7659 40.065 32.4559 40.34 32.9359 40.89C33.4259 41.43 33.6709 42.255 33.6709 43.365H28.9759C28.9459 43.645 28.9309 43.965 28.9309 44.325C28.9309 44.985 29.0359 45.56 29.2459 46.05C29.4659 46.54 29.7509 46.92 30.1009 47.19C30.4609 47.45 30.8359 47.58 31.2259 47.58C31.7059 47.58 32.1309 47.465 32.5009 47.235C32.8709 47.005 33.1809 46.62 33.4309 46.08L33.7309 46.2ZM30.8059 40.35C30.3359 40.35 29.9309 40.58 29.5909 41.04C29.2509 41.5 29.0409 42.18 28.9609 43.08H32.2309C32.2509 42.3 32.1359 41.65 31.8859 41.13C31.6459 40.61 31.2859 40.35 30.8059 40.35ZM39.6238 40.065C40.0238 40.065 40.3488 40.18 40.5988 40.41C40.8588 40.64 40.9888 40.92 40.9888 41.25C40.9888 41.51 40.9088 41.735 40.7488 41.925C40.5988 42.105 40.3938 42.195 40.1338 42.195C39.9138 42.195 39.7238 42.125 39.5638 41.985C39.4138 41.845 39.3388 41.655 39.3388 41.415C39.3388 41.085 39.5088 40.815 39.8488 40.605C39.7788 40.505 39.6738 40.455 39.5338 40.455C39.1438 40.455 38.7888 40.61 38.4688 40.92C38.1488 41.22 37.8988 41.59 37.7188 42.03C37.5388 42.47 37.4488 42.885 37.4488 43.275V46.455C37.4488 46.915 37.5788 47.235 37.8388 47.415C38.1088 47.595 38.5088 47.685 39.0388 47.685V48L38.6788 47.985C37.6588 47.955 37.0088 47.94 36.7288 47.94C36.4688 47.94 35.8788 47.96 34.9588 48V47.685C35.3788 47.685 35.6738 47.61 35.8438 47.46C36.0138 47.3 36.0988 47.015 36.0988 46.605V41.91C36.0988 41.45 36.0138 41.115 35.8438 40.905C35.6738 40.695 35.3788 40.59 34.9588 40.59V40.275C35.2788 40.305 35.5888 40.32 35.8888 40.32C36.5188 40.32 37.0388 40.25 37.4488 40.11V41.985C37.6288 41.485 37.9138 41.04 38.3038 40.65C38.7038 40.26 39.1438 40.065 39.6238 40.065ZM46.8285 40.065C47.5285 40.065 48.0585 40.255 48.4185 40.635C48.6085 40.835 48.7435 41.085 48.8235 41.385C48.9035 41.685 48.9435 42.09 48.9435 42.6V46.605C48.9435 47.015 49.0285 47.3 49.1985 47.46C49.3685 47.61 49.6635 47.685 50.0835 47.685V48C49.1635 47.96 48.5635 47.94 48.2835 47.94C48.0035 47.94 47.4435 47.96 46.6035 48V47.685C46.9735 47.685 47.2285 47.61 47.3685 47.46C47.5185 47.3 47.5935 47.015 47.5935 46.605V42.27C47.5935 41.71 47.5135 41.285 47.3535 40.995C47.1935 40.695 46.8685 40.545 46.3785 40.545C45.9685 40.545 45.6035 40.665 45.2835 40.905C44.9635 41.145 44.7135 41.475 44.5335 41.895C44.3635 42.305 44.2785 42.765 44.2785 43.275V46.605C44.2785 47.015 44.3485 47.3 44.4885 47.46C44.6385 47.61 44.8985 47.685 45.2685 47.685V48C44.4285 47.96 43.8685 47.94 43.5885 47.94C43.3085 47.94 42.7085 47.96 41.7885 48V47.685C42.2085 47.685 42.5035 47.61 42.6735 47.46C42.8435 47.3 42.9285 47.015 42.9285 46.605V41.91C42.9285 41.45 42.8435 41.115 42.6735 40.905C42.5035 40.695 42.2085 40.59 41.7885 40.59V40.275C42.1085 40.305 42.4185 40.32 42.7185 40.32C43.3485 40.32 43.8685 40.25 44.2785 40.11V41.88C44.5285 41.24 44.8735 40.78 45.3135 40.5C45.7635 40.21 46.2685 40.065 46.8285 40.065ZM52.8987 48.105C52.2687 48.105 51.7987 47.95 51.4887 47.64C51.1887 47.32 51.0387 46.88 51.0387 46.32C51.0387 45.87 51.1587 45.5 51.3987 45.21C51.6487 44.92 51.9387 44.69 52.2687 44.52C52.6087 44.35 53.0537 44.17 53.6037 43.98C54.1637 43.79 54.5787 43.615 54.8487 43.455C55.1187 43.295 55.2537 43.08 55.2537 42.81V41.88C55.2537 41.3 55.1287 40.905 54.8787 40.695C54.6387 40.475 54.2987 40.365 53.8587 40.365C53.1587 40.365 52.6637 40.545 52.3737 40.905C52.5737 40.955 52.7387 41.06 52.8687 41.22C53.0087 41.38 53.0787 41.58 53.0787 41.82C53.0787 42.07 52.9987 42.27 52.8387 42.42C52.6787 42.56 52.4737 42.63 52.2237 42.63C51.9437 42.63 51.7337 42.545 51.5937 42.375C51.4537 42.195 51.3837 41.98 51.3837 41.73C51.3837 41.49 51.4387 41.29 51.5487 41.13C51.6687 40.97 51.8437 40.81 52.0737 40.65C52.3137 40.48 52.6187 40.34 52.9887 40.23C53.3587 40.12 53.7637 40.065 54.2037 40.065C54.9837 40.065 55.5737 40.25 55.9737 40.62C56.2237 40.85 56.3887 41.13 56.4687 41.46C56.5587 41.78 56.6037 42.205 56.6037 42.735V46.905C56.6037 47.155 56.6387 47.335 56.7087 47.445C56.7787 47.555 56.8987 47.61 57.0687 47.61C57.1887 47.61 57.2987 47.585 57.3987 47.535C57.5087 47.475 57.6237 47.395 57.7437 47.295L57.9087 47.55C57.6487 47.75 57.4237 47.895 57.2337 47.985C57.0537 48.065 56.8237 48.105 56.5437 48.105C56.0637 48.105 55.7287 47.985 55.5387 47.745C55.3487 47.505 55.2537 47.18 55.2537 46.77C54.9537 47.27 54.6087 47.62 54.2187 47.82C53.8287 48.01 53.3887 48.105 52.8987 48.105ZM53.5587 47.505C54.2187 47.505 54.7837 47.125 55.2537 46.365V43.425C55.1637 43.565 55.0387 43.68 54.8787 43.77C54.7187 43.86 54.4737 43.98 54.1437 44.13C53.7637 44.29 53.4537 44.445 53.2137 44.595C52.9837 44.735 52.7837 44.93 52.6137 45.18C52.4437 45.43 52.3587 45.75 52.3587 46.14C52.3587 46.59 52.4687 46.93 52.6887 47.16C52.9087 47.39 53.1987 47.505 53.5587 47.505ZM60.9244 40.29H63.1444V40.59H60.9244V46.395C60.9244 46.845 61.0044 47.17 61.1644 47.37C61.3344 47.57 61.5744 47.67 61.8844 47.67C62.1944 47.67 62.4594 47.545 62.6794 47.295C62.8994 47.045 63.0844 46.635 63.2344 46.065L63.5344 46.14C63.2844 47.52 62.6344 48.21 61.5844 48.21C61.2444 48.21 60.9644 48.17 60.7444 48.09C60.5244 48.01 60.3294 47.885 60.1594 47.715C59.9394 47.495 59.7844 47.225 59.6944 46.905C59.6144 46.585 59.5744 46.155 59.5744 45.615V40.59H58.1344V40.29H59.5744V37.995C60.1344 37.975 60.5844 37.905 60.9244 37.785V40.29ZM65.6721 36.525C65.9321 36.525 66.1571 36.62 66.3471 36.81C66.5371 37 66.6321 37.225 66.6321 37.485C66.6321 37.745 66.5371 37.97 66.3471 38.16C66.1571 38.35 65.9321 38.445 65.6721 38.445C65.4121 38.445 65.1871 38.35 64.9971 38.16C64.8071 37.97 64.7121 37.745 64.7121 37.485C64.7121 37.225 64.8071 37 64.9971 36.81C65.1871 36.62 65.4121 36.525 65.6721 36.525ZM66.4521 46.605C66.4521 47.015 66.5371 47.3 66.7071 47.46C66.8771 47.61 67.1721 47.685 67.5921 47.685V48C66.6721 47.96 66.0671 47.94 65.7771 47.94C65.4871 47.94 64.8821 47.96 63.9621 48V47.685C64.3821 47.685 64.6771 47.61 64.8471 47.46C65.0171 47.3 65.1021 47.015 65.1021 46.605V41.91C65.1021 41.45 65.0171 41.115 64.8471 40.905C64.6771 40.695 64.3821 40.59 63.9621 40.59V40.275C64.2821 40.305 64.5921 40.32 64.8921 40.32C65.5221 40.32 66.0421 40.25 66.4521 40.11V46.605ZM72.1817 40.065C73.2017 40.065 74.0217 40.405 74.6417 41.085C75.2717 41.755 75.5867 42.775 75.5867 44.145C75.5867 45.515 75.2717 46.535 74.6417 47.205C74.0217 47.875 73.2017 48.21 72.1817 48.21C71.1617 48.21 70.3367 47.875 69.7067 47.205C69.0867 46.535 68.7767 45.515 68.7767 44.145C68.7767 42.775 69.0867 41.755 69.7067 41.085C70.3367 40.405 71.1617 40.065 72.1817 40.065ZM72.1817 40.365C71.5817 40.365 71.1067 40.675 70.7567 41.295C70.4067 41.905 70.2317 42.855 70.2317 44.145C70.2317 45.435 70.4067 46.385 70.7567 46.995C71.1067 47.605 71.5817 47.91 72.1817 47.91C72.7817 47.91 73.2567 47.605 73.6067 46.995C73.9567 46.385 74.1317 45.435 74.1317 44.145C74.1317 42.855 73.9567 41.905 73.6067 41.295C73.2567 40.675 72.7817 40.365 72.1817 40.365ZM81.9145 40.065C82.6145 40.065 83.1445 40.255 83.5045 40.635C83.6945 40.835 83.8295 41.085 83.9095 41.385C83.9895 41.685 84.0295 42.09 84.0295 42.6V46.605C84.0295 47.015 84.1145 47.3 84.2845 47.46C84.4545 47.61 84.7495 47.685 85.1695 47.685V48C84.2495 47.96 83.6495 47.94 83.3695 47.94C83.0895 47.94 82.5295 47.96 81.6895 48V47.685C82.0595 47.685 82.3145 47.61 82.4545 47.46C82.6045 47.3 82.6795 47.015 82.6795 46.605V42.27C82.6795 41.71 82.5995 41.285 82.4395 40.995C82.2795 40.695 81.9545 40.545 81.4645 40.545C81.0545 40.545 80.6895 40.665 80.3695 40.905C80.0495 41.145 79.7995 41.475 79.6195 41.895C79.4495 42.305 79.3645 42.765 79.3645 43.275V46.605C79.3645 47.015 79.4345 47.3 79.5745 47.46C79.7245 47.61 79.9845 47.685 80.3545 47.685V48C79.5145 47.96 78.9545 47.94 78.6745 47.94C78.3945 47.94 77.7945 47.96 76.8745 48V47.685C77.2945 47.685 77.5895 47.61 77.7595 47.46C77.9295 47.3 78.0145 47.015 78.0145 46.605V41.91C78.0145 41.45 77.9295 41.115 77.7595 40.905C77.5895 40.695 77.2945 40.59 76.8745 40.59V40.275C77.1945 40.305 77.5045 40.32 77.8045 40.32C78.4345 40.32 78.9545 40.25 79.3645 40.11V41.88C79.6145 41.24 79.9595 40.78 80.3995 40.5C80.8495 40.21 81.3545 40.065 81.9145 40.065ZM87.9847 48.105C87.3546 48.105 86.8847 47.95 86.5747 47.64C86.2747 47.32 86.1246 46.88 86.1246 46.32C86.1246 45.87 86.2446 45.5 86.4846 45.21C86.7347 44.92 87.0247 44.69 87.3547 44.52C87.6947 44.35 88.1397 44.17 88.6897 43.98C89.2497 43.79 89.6647 43.615 89.9347 43.455C90.2047 43.295 90.3397 43.08 90.3397 42.81V41.88C90.3397 41.3 90.2147 40.905 89.9647 40.695C89.7247 40.475 89.3847 40.365 88.9447 40.365C88.2447 40.365 87.7497 40.545 87.4597 40.905C87.6597 40.955 87.8247 41.06 87.9547 41.22C88.0947 41.38 88.1647 41.58 88.1647 41.82C88.1647 42.07 88.0847 42.27 87.9247 42.42C87.7647 42.56 87.5597 42.63 87.3097 42.63C87.0297 42.63 86.8197 42.545 86.6797 42.375C86.5397 42.195 86.4697 41.98 86.4697 41.73C86.4697 41.49 86.5247 41.29 86.6347 41.13C86.7547 40.97 86.9296 40.81 87.1597 40.65C87.3996 40.48 87.7047 40.34 88.0747 40.23C88.4447 40.12 88.8497 40.065 89.2896 40.065C90.0697 40.065 90.6597 40.25 91.0597 40.62C91.3097 40.85 91.4747 41.13 91.5547 41.46C91.6447 41.78 91.6897 42.205 91.6897 42.735V46.905C91.6897 47.155 91.7247 47.335 91.7947 47.445C91.8647 47.555 91.9847 47.61 92.1547 47.61C92.2747 47.61 92.3847 47.585 92.4847 47.535C92.5947 47.475 92.7097 47.395 92.8297 47.295L92.9947 47.55C92.7347 47.75 92.5097 47.895 92.3197 47.985C92.1397 48.065 91.9097 48.105 91.6297 48.105C91.1497 48.105 90.8147 47.985 90.6247 47.745C90.4347 47.505 90.3397 47.18 90.3397 46.77C90.0397 47.27 89.6947 47.62 89.3047 47.82C88.9147 48.01 88.4747 48.105 87.9847 48.105ZM88.6447 47.505C89.3047 47.505 89.8697 47.125 90.3397 46.365V43.425C90.2497 43.565 90.1247 43.68 89.9647 43.77C89.8047 43.86 89.5597 43.98 89.2297 44.13C88.8497 44.29 88.5397 44.445 88.2997 44.595C88.0697 44.735 87.8697 44.93 87.6997 45.18C87.5297 45.43 87.4447 45.75 87.4447 46.14C87.4447 46.59 87.5547 46.93 87.7747 47.16C87.9947 47.39 88.2847 47.505 88.6447 47.505ZM95.9804 46.605C95.9804 47.015 96.0654 47.3 96.2354 47.46C96.4054 47.61 96.7004 47.685 97.1204 47.685V48C96.2004 47.96 95.5954 47.94 95.3054 47.94C95.0154 47.94 94.4104 47.96 93.4904 48V47.685C93.9104 47.685 94.2054 47.61 94.3754 47.46C94.5454 47.3 94.6304 47.015 94.6304 46.605V38.04C94.6304 37.58 94.5454 37.245 94.3754 37.035C94.2054 36.825 93.9104 36.72 93.4904 36.72V36.405C93.8004 36.435 94.1104 36.45 94.4204 36.45C95.0504 36.45 95.5704 36.38 95.9804 36.24V46.605ZM105.943 37.68C105.583 37.7 105.318 37.74 105.148 37.8C104.988 37.86 104.878 37.975 104.818 38.145C104.758 38.315 104.728 38.59 104.728 38.97V46.41C104.728 46.79 104.758 47.065 104.818 47.235C104.878 47.405 104.988 47.52 105.148 47.58C105.318 47.63 105.583 47.655 105.943 47.655H107.038C107.658 47.655 108.128 47.57 108.448 47.4C108.778 47.22 109.018 46.935 109.168 46.545C109.318 46.155 109.428 45.59 109.498 44.85H109.843C109.813 45.16 109.798 45.57 109.798 46.08C109.798 46.65 109.833 47.29 109.903 48C109.223 47.97 108.078 47.955 106.468 47.955C104.548 47.955 103.098 47.97 102.118 48V47.7C102.478 47.68 102.738 47.64 102.898 47.58C103.068 47.52 103.183 47.405 103.243 47.235C103.303 47.065 103.333 46.79 103.333 46.41V38.97C103.333 38.59 103.303 38.315 103.243 38.145C103.183 37.975 103.068 37.86 102.898 37.8C102.738 37.74 102.478 37.7 102.118 37.68V37.38C102.538 37.41 103.178 37.425 104.038 37.425C104.838 37.425 105.473 37.41 105.943 37.38V37.68ZM112.601 36.525C112.861 36.525 113.086 36.62 113.276 36.81C113.466 37 113.561 37.225 113.561 37.485C113.561 37.745 113.466 37.97 113.276 38.16C113.086 38.35 112.861 38.445 112.601 38.445C112.341 38.445 112.116 38.35 111.926 38.16C111.736 37.97 111.641 37.745 111.641 37.485C111.641 37.225 111.736 37 111.926 36.81C112.116 36.62 112.341 36.525 112.601 36.525ZM113.381 46.605C113.381 47.015 113.466 47.3 113.636 47.46C113.806 47.61 114.101 47.685 114.521 47.685V48C113.601 47.96 112.996 47.94 112.706 47.94C112.416 47.94 111.811 47.96 110.891 48V47.685C111.311 47.685 111.606 47.61 111.776 47.46C111.946 47.3 112.031 47.015 112.031 46.605V41.91C112.031 41.45 111.946 41.115 111.776 40.905C111.606 40.695 111.311 40.59 110.891 40.59V40.275C111.211 40.305 111.521 40.32 111.821 40.32C112.451 40.32 112.971 40.25 113.381 40.11V46.605ZM126.956 46.605C126.956 47.015 127.041 47.3 127.211 47.46C127.381 47.61 127.676 47.685 128.096 47.685V48C127.176 47.96 126.576 47.94 126.296 47.94C126.016 47.94 125.456 47.96 124.616 48V47.685C124.986 47.685 125.241 47.61 125.381 47.46C125.531 47.3 125.606 47.015 125.606 46.605V42.27C125.606 41.89 125.581 41.585 125.531 41.355C125.491 41.115 125.386 40.92 125.216 40.77C125.056 40.62 124.806 40.545 124.466 40.545C124.086 40.545 123.741 40.665 123.431 40.905C123.121 41.145 122.876 41.475 122.696 41.895C122.526 42.305 122.441 42.76 122.441 43.26V46.605C122.441 47.015 122.526 47.3 122.696 47.46C122.866 47.61 123.161 47.685 123.581 47.685V48C122.661 47.96 122.061 47.94 121.781 47.94C121.501 47.94 120.941 47.96 120.101 48V47.685C120.471 47.685 120.726 47.61 120.866 47.46C121.016 47.3 121.091 47.015 121.091 46.605V42.27C121.091 41.89 121.066 41.585 121.016 41.355C120.976 41.115 120.871 40.92 120.701 40.77C120.541 40.62 120.291 40.545 119.951 40.545C119.571 40.545 119.226 40.665 118.916 40.905C118.606 41.145 118.361 41.475 118.181 41.895C118.011 42.315 117.926 42.775 117.926 43.275V46.605C117.926 47.015 117.996 47.3 118.136 47.46C118.286 47.61 118.546 47.685 118.916 47.685V48C118.076 47.96 117.516 47.94 117.236 47.94C116.956 47.94 116.356 47.96 115.436 48V47.685C115.856 47.685 116.151 47.61 116.321 47.46C116.491 47.3 116.576 47.015 116.576 46.605V41.91C116.576 41.45 116.491 41.115 116.321 40.905C116.151 40.695 115.856 40.59 115.436 40.59V40.275C115.756 40.305 116.066 40.32 116.366 40.32C116.996 40.32 117.516 40.25 117.926 40.11V41.88C118.166 41.26 118.506 40.805 118.946 40.515C119.386 40.215 119.866 40.065 120.386 40.065C121.066 40.065 121.586 40.255 121.946 40.635C122.196 40.895 122.351 41.295 122.411 41.835C122.661 41.205 123.006 40.755 123.446 40.485C123.886 40.205 124.371 40.065 124.901 40.065C125.581 40.065 126.101 40.255 126.461 40.635C126.641 40.835 126.766 41.09 126.836 41.4C126.916 41.71 126.956 42.11 126.956 42.6V46.605ZM130.611 36.525C130.871 36.525 131.096 36.62 131.286 36.81C131.476 37 131.571 37.225 131.571 37.485C131.571 37.745 131.476 37.97 131.286 38.16C131.096 38.35 130.871 38.445 130.611 38.445C130.351 38.445 130.126 38.35 129.936 38.16C129.746 37.97 129.651 37.745 129.651 37.485C129.651 37.225 129.746 37 129.936 36.81C130.126 36.62 130.351 36.525 130.611 36.525ZM131.391 46.605C131.391 47.015 131.476 47.3 131.646 47.46C131.816 47.61 132.111 47.685 132.531 47.685V48C131.611 47.96 131.006 47.94 130.716 47.94C130.426 47.94 129.821 47.96 128.901 48V47.685C129.321 47.685 129.616 47.61 129.786 47.46C129.956 47.3 130.041 47.015 130.041 46.605V41.91C130.041 41.45 129.956 41.115 129.786 40.905C129.616 40.695 129.321 40.59 128.901 40.59V40.275C129.221 40.305 129.531 40.32 129.831 40.32C130.461 40.32 130.981 40.25 131.391 40.11V46.605ZM135.861 40.29H138.081V40.59H135.861V46.395C135.861 46.845 135.941 47.17 136.101 47.37C136.271 47.57 136.511 47.67 136.821 47.67C137.131 47.67 137.396 47.545 137.616 47.295C137.836 47.045 138.021 46.635 138.171 46.065L138.471 46.14C138.221 47.52 137.571 48.21 136.521 48.21C136.181 48.21 135.901 48.17 135.681 48.09C135.461 48.01 135.266 47.885 135.096 47.715C134.876 47.495 134.721 47.225 134.631 46.905C134.551 46.585 134.511 46.155 134.511 45.615V40.59H133.071V40.29H134.511V37.995C135.071 37.975 135.521 37.905 135.861 37.785V40.29ZM145.408 46.2C145.228 46.75 144.888 47.225 144.388 47.625C143.898 48.015 143.303 48.21 142.603 48.21C141.893 48.21 141.278 48.05 140.758 47.73C140.238 47.4 139.838 46.945 139.558 46.365C139.288 45.775 139.153 45.095 139.153 44.325C139.153 43.455 139.293 42.7 139.573 42.06C139.853 41.42 140.248 40.93 140.758 40.59C141.268 40.24 141.863 40.065 142.543 40.065C143.443 40.065 144.133 40.34 144.613 40.89C145.103 41.43 145.348 42.255 145.348 43.365H140.653C140.623 43.645 140.608 43.965 140.608 44.325C140.608 44.985 140.713 45.56 140.923 46.05C141.143 46.54 141.428 46.92 141.778 47.19C142.138 47.45 142.513 47.58 142.903 47.58C143.383 47.58 143.808 47.465 144.178 47.235C144.548 47.005 144.858 46.62 145.108 46.08L145.408 46.2ZM142.483 40.35C142.013 40.35 141.608 40.58 141.268 41.04C140.928 41.5 140.718 42.18 140.638 43.08H143.908C143.928 42.3 143.813 41.65 143.563 41.13C143.323 40.61 142.963 40.35 142.483 40.35ZM153.461 46.365C153.461 46.825 153.546 47.16 153.716 47.37C153.886 47.58 154.181 47.685 154.601 47.685V48C154.291 47.97 153.981 47.955 153.671 47.955C153.041 47.955 152.521 48.025 152.111 48.165V46.83C151.931 47.28 151.661 47.625 151.301 47.865C150.941 48.095 150.501 48.21 149.981 48.21C149.021 48.21 148.266 47.865 147.716 47.175C147.176 46.485 146.911 45.475 146.921 44.145C146.921 43.275 147.071 42.535 147.371 41.925C147.681 41.305 148.091 40.84 148.601 40.53C149.121 40.22 149.691 40.065 150.311 40.065C150.691 40.065 151.036 40.14 151.346 40.29C151.666 40.43 151.921 40.65 152.111 40.95V38.04C152.111 37.58 152.026 37.245 151.856 37.035C151.686 36.825 151.391 36.72 150.971 36.72V36.405C151.291 36.435 151.601 36.45 151.901 36.45C152.531 36.45 153.051 36.38 153.461 36.24V46.365ZM150.416 47.76C150.806 47.76 151.156 47.61 151.466 47.31C151.776 47.01 151.991 46.585 152.111 46.035V41.565C151.841 40.795 151.281 40.41 150.431 40.41C149.811 40.41 149.311 40.73 148.931 41.37C148.551 42 148.366 42.925 148.376 44.145C148.366 45.345 148.536 46.25 148.886 46.86C149.236 47.46 149.746 47.76 150.416 47.76Z" fill="#C3C3C3"/>
<path d="M165.941 17.2941C168.345 17.2941 170.294 15.3452 170.294 12.9412C170.294 10.5371 168.345 8.58823 165.941 8.58823C163.537 8.58823 161.588 10.5371 161.588 12.9412C161.588 15.3452 163.537 17.2941 165.941 17.2941Z" stroke="#A9A9A9" stroke-width="0.75" stroke-miterlimit="10"/>
<path d="M166.26 13.4154H165.091V15.4286H164.431V10.452H166.079C166.639 10.452 167.07 10.5796 167.371 10.8348C167.674 11.09 167.825 11.4614 167.825 11.9491C167.825 12.259 167.741 12.529 167.573 12.7591C167.406 12.9893 167.174 13.1613 166.875 13.2752L168.044 15.3875V15.4286H167.34L166.26 13.4154ZM165.091 12.8788H166.099C166.425 12.8788 166.684 12.7944 166.875 12.6258C167.069 12.4572 167.166 12.2316 167.166 11.9491C167.166 11.6414 167.073 11.4056 166.889 11.2415C166.707 11.0775 166.442 10.9943 166.096 10.992H165.091V12.8788Z" fill="#C0C0C0"/>
<line x1="1" y1="32.75" x2="282" y2="32.75" stroke="white" stroke-width="0.5"/>
</svg>
