<svg width="26" height="19" viewBox="0 0 26 19" fill="none" xmlns="http://www.w3.org/2000/svg">
<path d="M20.3237 0.299805C21.4468 0.348633 22.4803 0.373047 23.4243 0.373047C24.2137 0.373047 24.8566 0.348633 25.353 0.299805V0.800293C24.3765 1.17464 23.644 2.16748 23.1558 3.77881L18.749 18.0488C18.57 18.0326 18.277 18.0244 17.8701 18.0244C17.4714 18.0244 17.1825 18.0326 17.0034 18.0488L13.3169 6.90381L9.63037 18.0488C9.4432 18.0326 9.15023 18.0244 8.75146 18.0244C8.3527 18.0244 8.05973 18.0326 7.87256 18.0488L2.26953 2.39941C2.08236 1.85417 1.84229 1.4554 1.54932 1.20312C1.26449 0.950846 0.979655 0.816569 0.694824 0.800293V0.299805C1.6958 0.348633 2.94092 0.373047 4.43018 0.373047C5.82992 0.373047 6.85124 0.348633 7.49414 0.299805V0.800293C6.91634 0.873535 6.62744 1.19906 6.62744 1.77686C6.62744 2.0861 6.70068 2.46045 6.84717 2.8999L10.4971 13.4468L13.0361 6.0249L11.7544 2.15527C11.5916 1.66699 11.3963 1.3252 11.1685 1.12988C10.9406 0.93457 10.6761 0.824707 10.375 0.800293V0.299805C11.3027 0.348633 12.495 0.373047 13.9517 0.373047C15.5711 0.373047 16.7715 0.348633 17.5527 0.299805V0.800293C16.9424 0.816569 16.507 0.885742 16.2466 1.00781C15.9862 1.12988 15.856 1.36995 15.856 1.72803C15.856 1.99658 15.9373 2.38721 16.1001 2.8999L19.5181 13.3613L21.8984 5.80518C22.2728 4.58447 22.46 3.61198 22.46 2.8877C22.46 2.16341 22.2809 1.64258 21.9229 1.3252C21.5729 0.999674 21.0399 0.824707 20.3237 0.800293V0.299805Z" fill="black"/>
</svg>
